<svg width="57" height="41" viewBox="0 0 57 41" fill="none" xmlns="http://www.w3.org/2000/svg">
<g clip-path="url(#clip0)">
<path d="M17.3529 18.6888C18.643 18.6888 19.6889 19.7347 19.6889 21.0249C19.6889 22.315 18.643 23.3609 17.3529 23.3609H11.2892C5.41638 23.3609 0.655518 18.6 0.655518 12.7272C0.655518 6.85437 5.41638 2.09351 11.2892 2.09351H26.9271C28.2173 2.09351 29.2631 3.13939 29.2631 4.42955C29.2631 5.71971 28.2173 6.76559 26.9271 6.76559H11.2892C7.9967 6.76559 5.3276 9.43469 5.3276 12.7272C5.3276 16.0197 7.9967 18.6888 11.2892 18.6888H17.3529Z" fill="white"/>
<path d="M12.5658 23.361C11.2757 23.361 10.2298 22.3151 10.2298 21.025C10.2298 19.7348 11.2757 18.6889 12.5658 18.6889L18.6295 18.6889C24.5023 18.6889 29.2632 23.4498 29.2632 29.3226C29.2632 35.1954 24.5023 39.9563 18.6295 39.9563H2.99161C1.70145 39.9563 0.655563 38.9104 0.655563 37.6203C0.655563 36.3301 1.70145 35.2842 2.99161 35.2842H18.6295C21.922 35.2842 24.5911 32.6151 24.5911 29.3226C24.5911 26.0301 21.922 23.361 18.6295 23.361L12.5658 23.361Z" fill="white"/>
<path d="M4.83753 39.0139L1.03979 36.2926L24.9261 2.95801L28.7238 5.67932L4.83753 39.0139Z" fill="white" fill-opacity="0.5"/>
<path d="M51 31.9727V34.8086H37.3008L38.7305 38.9922H36.3281L33.8789 32.3359V31.9727H51ZM43.8164 14.9219C46.2695 14.9219 48.1211 15.3828 49.3711 16.3047C50.6133 17.2188 51.2344 18.6133 51.2344 20.4883C51.2344 22.332 50.6289 23.7227 49.418 24.6602C48.1992 25.5898 46.3984 26.0664 44.0156 26.0898H41.0625C38.6094 26.0898 36.7695 25.6328 35.543 24.7188C34.3164 23.7969 33.7031 22.3945 33.7031 20.5117C33.7031 18.6445 34.3008 17.2539 35.4961 16.3398C36.6914 15.418 38.4805 14.9453 40.8633 14.9219H43.8164ZM40.6289 17.7695C39.0273 17.7695 37.8555 17.9883 37.1133 18.4258C36.3633 18.8633 35.9883 19.5586 35.9883 20.5117C35.9883 21.4414 36.3438 22.125 37.0547 22.5625C37.7578 23 38.8594 23.2305 40.3594 23.2539H44.2266C45.8203 23.2539 47.0078 23.0312 47.7891 22.5859C48.5703 22.1406 48.9609 21.4414 48.9609 20.4883C48.9609 19.5742 48.6016 18.8984 47.8828 18.4609C47.1562 18.0234 46.0234 17.793 44.4844 17.7695H40.6289ZM51 4.69141V7.52734H37.3008L38.7305 11.7109H36.3281L33.8789 5.05469V4.69141H51Z" fill="white"/>
</g>
<defs>
<clipPath id="clip0">
<rect x="0.655518" width="56.3445" height="41" fill="white"/>
</clipPath>
</defs>
</svg>
