<svg width="478" height="54" viewBox="0 0 478 54" fill="none" xmlns="http://www.w3.org/2000/svg">
<path d="M50 7H56.773L70.4519 30.3324L84.33 7H90.8375L73.3072 36.6348V54H67.5302V36.6348L50 7ZM103.264 54V7.06705H108.577L133.544 43.2725V7.06705H139.188V54H133.876L108.909 17.7946V54H103.264ZM152.677 7.06705H188.601V12.4308H173.528V54H167.751V12.4308H152.677V7.06705ZM202.09 7H207.867V27.4494H231.905V7H237.682V54H231.905V32.8131H207.867V54H202.09V7ZM254.027 7.06705H283.642V12.4308H259.804V27.4494H279.658V32.8131H259.804V48.6362H284.505V54H254.027V7.06705ZM294.409 7.06705H330.333V12.4308H315.259V54H309.482V12.4308H294.409V7.06705ZM343.822 7.06705H349.599V54H343.822V7.06705ZM379.158 29.9971L364.35 7.06705H371.123L382.876 25.3039L394.762 7.06705H401.004L386.196 29.9971L402 54H395.161L382.411 34.6904L369.596 54H363.354L379.158 29.9971Z" fill="white"/>
<path fill-rule="evenodd" clip-rule="evenodd" d="M5.92028 52.08L0.974365 48.6038L32.0797 6L37.0257 9.47619L5.92028 52.08Z" fill="white" fill-opacity="0.5"/>
<path fill-rule="evenodd" clip-rule="evenodd" d="M22.1794 26.9749C23.8931 26.9749 25.2824 28.2968 25.2824 29.9275C25.2824 31.5581 23.8931 32.88 22.1794 32.88H14.1243C6.32426 32.88 0 26.8637 0 19.4406C0 12.0176 6.32293 6 14.1243 6H34.897C36.0056 6 37.03 6.56275 37.5843 7.47627C38.1386 8.38979 38.1386 9.51529 37.5843 10.4288C37.03 11.3423 36.0056 11.9051 34.897 11.9051H14.1243C9.7908 11.9585 6.30727 15.3163 6.30727 19.44C6.30727 23.5637 9.7908 26.9215 14.1243 26.9749H22.1794Z" fill="white"/>
<path fill-rule="evenodd" clip-rule="evenodd" d="M15.8206 33.0246C14.1069 33.0246 12.7176 31.7029 12.7176 30.0724C12.7176 28.4419 14.1069 27.1201 15.8206 27.1201H23.8757C31.6757 27.1201 38 33.1371 38 40.5595C38 47.9818 31.6771 54.0001 23.8757 54.0001H3.10302C1.99442 54.0001 0.970026 53.4374 0.415725 52.524C-0.138575 51.6106 -0.138575 50.4852 0.415725 49.5717C0.970026 48.6583 1.99442 48.0956 3.10302 48.0956H23.8757C28.2496 48.0956 31.7953 44.7221 31.7953 40.5607C31.7953 36.3994 28.2496 33.0259 23.8757 33.0259H15.8206V33.0246Z" fill="white"/>
<path d="M429.482 33H425.229V12.4512L418.953 14.5957V10.9922L428.938 7.31836H429.482V33ZM455.059 22.2246C455.059 25.9043 454.367 28.6816 452.984 30.5566C451.613 32.4199 449.521 33.3516 446.709 33.3516C443.943 33.3516 441.857 32.4434 440.451 30.627C439.057 28.7988 438.342 26.0977 438.307 22.5234V18.0938C438.307 14.4141 438.992 11.6543 440.363 9.81445C441.746 7.97461 443.85 7.05469 446.674 7.05469C449.475 7.05469 451.561 7.95117 452.932 9.74414C454.314 11.5371 455.023 14.2207 455.059 17.7949V22.2246ZM450.787 17.4434C450.787 15.041 450.459 13.2832 449.803 12.1699C449.146 11.0449 448.104 10.4824 446.674 10.4824C445.279 10.4824 444.254 11.0156 443.598 12.082C442.941 13.1367 442.596 14.7891 442.561 17.0391V22.8398C442.561 25.2305 442.895 27.0117 443.562 28.1836C444.23 29.3555 445.279 29.9414 446.709 29.9414C448.08 29.9414 449.094 29.4023 449.75 28.3242C450.406 27.2344 450.752 25.5352 450.787 23.2266V17.4434ZM470.404 33H466.15V12.4512L459.875 14.5957V10.9922L469.859 7.31836H470.404V33Z" fill="white"/>
</svg>
