<svg width="30" height="38" viewBox="0 0 30 38" fill="none" xmlns="http://www.w3.org/2000/svg">
<path d="M17.3529 16.6888C18.643 16.6888 19.6889 17.7347 19.6889 19.0249C19.6889 20.315 18.643 21.3609 17.3529 21.3609H11.2892C5.41638 21.3609 0.655518 16.6 0.655518 10.7272C0.655518 4.85437 5.41638 0.0935059 11.2892 0.0935059H26.9271C28.2173 0.0935059 29.2631 1.13939 29.2631 2.42955C29.2631 3.71971 28.2173 4.76559 26.9271 4.76559H11.2892C7.9967 4.76559 5.3276 7.43469 5.3276 10.7272C5.3276 14.0197 7.9967 16.6888 11.2892 16.6888H17.3529Z" fill="white"/>
<path d="M12.5658 21.361C11.2757 21.361 10.2298 20.3151 10.2298 19.025C10.2298 17.7348 11.2757 16.6889 12.5658 16.6889L18.6295 16.6889C24.5023 16.6889 29.2632 21.4498 29.2632 27.3226C29.2632 33.1954 24.5023 37.9563 18.6295 37.9563H2.99161C1.70145 37.9563 0.655563 36.9104 0.655563 35.6203C0.655563 34.3301 1.70145 33.2842 2.99161 33.2842H18.6295C21.922 33.2842 24.5911 30.6151 24.5911 27.3226C24.5911 24.0301 21.922 21.361 18.6295 21.361L12.5658 21.361Z" fill="white"/>
<path d="M4.83753 37.0139L1.03979 34.2926L24.9261 0.958008L28.7238 3.67932L4.83753 37.0139Z" fill="white" fill-opacity="0.5"/>
</svg>
