<?xml version="1.0" encoding="UTF-8"?>
<svg width="402px" height="48px" viewBox="0 0 402 48" version="1.1" xmlns="http://www.w3.org/2000/svg" xmlns:xlink="http://www.w3.org/1999/xlink">
    <!-- Generator: Sketch 53 (72520) - https://sketchapp.com -->
    <title>Group 12</title>
    <desc>Created with Sketch.</desc>
    <g id="Page-1" stroke="none" stroke-width="1" fill="none" fill-rule="evenodd">
        <g id="sETH,-sBNB,-Inverse-Synths,-and-SNX-Staking-Rewards" transform="translate(-143.000000, -92.000000)">
            <g id="Group-12" transform="translate(143.000000, 92.000000)">
                <path d="M50,1 L56.7730432,1 L70.4519343,24.3323823 L84.3300326,1 L90.8374662,1 L73.3072368,30.6348074 L73.3072368,48 L67.5302294,48 L67.5302294,30.6348074 L50,1 Z M103.264336,48 L103.264336,1.06704708 L108.576526,1.06704708 L133.543823,37.2724679 L133.543823,1.06704708 L139.188025,1.06704708 L139.188025,48 L133.875835,48 L108.908538,11.7945792 L108.908538,48 L103.264336,48 Z M152.677333,1.06704708 L188.601023,1.06704708 L188.601023,6.43081312 L173.527681,6.43081312 L173.527681,48 L167.750674,48 L167.750674,6.43081312 L152.677333,6.43081312 L152.677333,1.06704708 Z M202.09033,1 L207.867337,1 L207.867337,21.4493581 L231.905,21.4493581 L231.905,1 L237.682008,1 L237.682008,48 L231.905,48 L231.905,26.8131241 L207.867337,26.8131241 L207.867337,48 L202.09033,48 L202.09033,1 Z M254.026618,1.06704708 L283.642081,1.06704708 L283.642081,6.43081312 L259.803625,6.43081312 L259.803625,21.4493581 L279.657938,21.4493581 L279.657938,26.8131241 L259.803625,26.8131241 L259.803625,42.636234 L284.505312,42.636234 L284.505312,48 L254.026618,48 L254.026618,1.06704708 Z M294.408891,1.06704708 L330.332581,1.06704708 L330.332581,6.43081312 L315.259239,6.43081312 L315.259239,48 L309.482232,48 L309.482232,6.43081312 L294.408891,6.43081312 L294.408891,1.06704708 Z M343.821888,1.06704708 L349.598895,1.06704708 L349.598895,48 L343.821888,48 L343.821888,1.06704708 Z M379.15758,23.9971469 L364.349848,1.06704708 L371.122891,1.06704708 L382.876113,19.3038516 L394.76214,1.06704708 L401.003964,1.06704708 L386.196233,23.9971469 L402,48 L395.160554,48 L382.411297,28.6904422 L369.595637,48 L363.353812,48 L379.15758,23.9971469 Z" id="YNTHETIX" fill="#090818" fill-rule="nonzero"></path>
                <g id="Group">
                    <polygon id="Path" fill="#BFBFBF" points="5.92027608 46.08 0.974358974 42.6038074 32.0797239 0 37.025641 3.47619259"></polygon>
                    <path d="M22.1793966,20.9749189 C23.8931454,20.9749189 25.2824134,22.2968163 25.2824134,23.9274594 C25.2824134,25.5581026 23.8931454,26.88 22.1793966,26.88 L14.1243052,26.88 C6.32425629,26.88 0,20.863693 0,13.440632 C-2.34118236e-15,6.01757088 6.32292795,0 14.1243052,0 L34.8969832,0 C36.0055843,-1.5718358e-08 37.029974,0.562751032 37.5842746,1.47627027 C38.1385751,2.3897895 38.1385751,3.51529161 37.5842746,4.42881085 C37.029974,5.34233008 36.0055843,5.90508113 34.8969832,5.90508111 L14.1243052,5.90508111 C9.79079597,5.95848622 6.30726989,9.316292 6.30726989,13.44 C6.30726989,17.563708 9.79079597,20.9215138 14.1243052,20.9749189 L22.1793966,20.9749189 Z" id="Path" fill="#090818"></path>
                    <path d="M15.8206034,27.0245258 C14.1068546,27.0245258 12.7175867,25.7027527 12.7175867,24.0722629 C12.7175867,22.4417731 14.1068546,21.12 15.8206034,21.12 L23.8756948,21.12 C31.6757437,21.12 38,27.137005 38,34.5593681 C38,41.9817312 31.6770721,48 23.8756948,48 L3.10301686,48 C1.99441573,48 0.970026017,47.4373019 0.415725436,46.5238686 C-0.138575145,45.6104352 -0.138575145,44.4850389 0.415725436,43.5716056 C0.970026017,42.6581722 1.99441573,42.0954741 3.10301686,42.0954742 L23.8756948,42.0954742 C28.2495692,42.0954742 31.7952949,38.7220104 31.7952949,34.5606319 C31.7952949,30.3992534 28.2495692,27.0257896 23.8756948,27.0257896 L15.8206034,27.0257896 L15.8206034,27.0245258 Z" id="Path" fill="#090818"></path>
                </g>
            </g>
        </g>
    </g>
</svg>